<svg version="1.0" xmlns="http://www.w3.org/2000/svg"
 width="1280.000000pt" height="463.000000pt" viewBox="0 0 1280.000000 463.000000"
 preserveAspectRatio="xMidYMid meet">
<g transform="translate(0.000000,463.000000) scale(0.100000,-0.100000)"
fill="#666" stroke="none">
<path d="M3950 4615 c-144 -22 -212 -38 -298 -69 -23 -8 -44 -15 -47 -15 -3
-1 -21 -8 -41 -16 -20 -8 -38 -15 -40 -15 -1 0 -15 -5 -31 -12 -15 -6 -30 -12
-33 -13 -19 -7 -121 -59 -145 -75 -16 -11 -47 -29 -68 -40 -21 -12 -46 -29
-55 -38 -10 -10 -33 -28 -52 -42 -73 -52 -208 -182 -280 -270 -25 -30 -48 -56
-52 -58 -5 -2 -8 -8 -8 -14 0 -5 -14 -26 -31 -46 -33 -40 -65 -91 -98 -157
-39 -79 -40 -80 -113 -49 -106 45 -113 47 -118 48 -3 1 -9 4 -15 8 -9 5 -74
24 -115 33 -8 2 -49 13 -90 23 -42 11 -91 23 -110 26 -19 3 -44 7 -55 10 -11
2 -40 7 -65 11 -25 4 -54 9 -65 11 -124 25 -435 37 -545 20 -222 -32 -366 -85
-514 -187 -69 -47 -195 -169 -246 -238 -14 -19 -33 -43 -42 -54 -10 -11 -39
-56 -65 -101 -25 -44 -53 -89 -61 -98 -8 -10 -12 -18 -8 -18 4 0 -2 -12 -13
-26 -12 -15 -21 -31 -21 -36 0 -5 -16 -44 -36 -86 -20 -42 -40 -86 -44 -97 -5
-11 -20 -46 -34 -77 -14 -32 -23 -58 -20 -58 2 0 -5 -18 -16 -40 -11 -22 -18
-40 -16 -40 3 0 -6 -25 -19 -55 -14 -30 -22 -55 -19 -55 4 0 2 -6 -3 -12 -5
-7 -18 -40 -28 -73 -10 -33 -20 -67 -23 -75 -3 -8 -6 -18 -7 -22 -2 -5 -4 -10
-5 -13 -1 -3 -4 -9 -5 -15 -1 -5 -3 -11 -5 -12 -1 -2 -3 -11 -5 -21 -2 -10 -7
-26 -11 -35 -4 -9 -8 -23 -10 -30 -1 -8 -6 -21 -10 -30 -4 -9 -8 -19 -9 -22 0
-3 -8 -30 -18 -60 -9 -30 -15 -58 -14 -61 1 -3 -4 -13 -12 -22 -7 -10 -10 -17
-6 -17 4 0 3 -6 -3 -13 -21 -25 -26 -95 -8 -122 20 -31 84 -35 108 -7 9 9 30
64 48 122 40 130 189 576 207 620 3 8 7 20 9 25 9 32 104 256 121 285 11 19
42 78 69 130 27 52 57 104 67 114 9 11 17 26 17 33 0 7 5 13 10 13 6 0 10 7
10 15 0 8 4 15 8 15 4 0 20 19 35 43 55 86 195 205 312 264 156 79 306 113
506 113 130 0 315 -16 405 -34 12 -2 37 -7 55 -10 19 -3 57 -10 84 -16 28 -6
61 -13 75 -15 14 -3 36 -10 50 -15 14 -5 36 -12 50 -14 14 -3 52 -14 85 -26
33 -11 68 -23 79 -25 10 -2 23 -9 30 -14 6 -5 16 -10 21 -10 6 0 27 -8 47 -17
36 -16 37 -17 23 -44 -8 -16 -26 -67 -40 -115 -14 -48 -27 -90 -30 -95 -5 -7
-28 -110 -45 -195 -4 -22 -12 -69 -16 -105 -14 -109 -10 -435 6 -435 1 0 3 -7
5 -16 4 -24 68 -121 102 -155 112 -115 291 -163 442 -118 34 10 61 22 61 26 0
4 5 8 10 8 23 0 94 78 119 130 24 51 26 65 28 205 0 83 -3 175 -7 205 -16 107
-21 135 -27 155 -4 11 -8 26 -9 34 -3 17 -42 120 -55 143 -5 10 -9 25 -9 33 0
8 -5 15 -12 15 -6 0 -9 3 -5 6 3 3 -18 40 -47 82 -86 127 -90 132 -244 258
-25 20 -30 29 -20 35 7 5 10 9 6 9 -4 0 3 16 17 35 13 20 30 49 37 65 7 17 16
30 20 30 5 0 8 4 8 10 0 9 76 115 106 146 5 6 26 31 45 55 61 77 198 204 261
242 18 11 35 23 36 28 2 5 8 9 14 9 5 0 24 10 41 22 56 40 209 118 231 118 6
0 16 4 22 9 8 7 96 38 137 47 9 2 27 7 40 10 61 16 169 35 232 42 137 14 463
7 565 -13 10 -2 35 -6 56 -9 100 -15 423 -96 494 -123 8 -4 17 -7 20 -7 17 -4
217 -80 225 -86 6 -4 37 -17 70 -30 70 -27 392 -185 480 -236 33 -19 67 -37
75 -41 8 -4 20 -11 25 -15 23 -19 86 -58 94 -58 4 0 21 -11 37 -25 15 -13 41
-30 56 -36 15 -6 28 -15 28 -20 0 -5 7 -9 15 -9 8 0 15 -3 15 -7 0 -5 23 -21
50 -38 27 -16 50 -33 50 -37 0 -5 4 -8 10 -8 5 0 54 -34 109 -75 l100 -75 -14
-28 c-16 -29 -53 -118 -55 -130 -1 -4 -5 -11 -10 -17 -4 -5 -13 -28 -20 -50
-6 -22 -18 -62 -26 -90 -47 -160 -53 -378 -14 -500 29 -92 53 -144 80 -175 12
-14 27 -32 34 -41 18 -25 142 -116 183 -135 21 -9 52 -23 70 -30 68 -30 177
-40 243 -22 25 7 73 36 101 61 94 85 126 305 75 512 -15 61 -35 125 -50 160
-10 22 -19 49 -22 59 -15 77 -174 270 -332 405 -53 45 -64 67 -37 77 8 4 15
11 15 17 0 6 37 46 83 89 105 101 117 111 153 134 34 22 39 26 80 59 18 14 35
25 39 25 3 0 25 13 48 29 35 23 190 103 207 106 3 0 15 6 28 13 12 7 22 10 22
6 0 -3 6 -2 13 3 15 12 136 48 192 57 22 4 67 11 100 16 90 15 291 20 370 9
39 -5 90 -11 115 -14 25 -3 53 -8 62 -11 18 -5 22 -6 118 -28 59 -13 228 -70
290 -97 14 -6 39 -17 55 -24 72 -32 284 -137 320 -160 22 -14 52 -30 68 -36
15 -6 27 -15 27 -19 0 -5 9 -12 21 -15 18 -6 72 -38 104 -62 6 -5 37 -26 70
-48 33 -22 62 -43 63 -47 2 -5 10 -8 18 -8 8 0 14 -4 14 -10 0 -5 5 -10 11
-10 6 0 17 -7 25 -15 9 -8 45 -36 81 -62 37 -26 80 -60 97 -75 17 -15 34 -28
38 -28 4 0 18 -10 32 -22 14 -13 39 -34 56 -48 17 -14 44 -37 61 -52 17 -15
49 -42 72 -60 22 -18 57 -47 76 -65 274 -247 498 -466 661 -643 47 -51 92
-100 101 -109 8 -9 33 -38 55 -66 21 -27 51 -62 67 -77 15 -15 27 -31 27 -35
0 -4 21 -30 46 -58 24 -27 48 -54 52 -60 4 -5 21 -28 37 -49 17 -22 42 -54 58
-70 15 -17 27 -35 27 -41 0 -5 13 -25 28 -43 52 -62 72 -90 72 -101 0 -6 4
-11 8 -11 4 0 23 -26 42 -57 19 -32 44 -71 57 -86 13 -16 23 -35 23 -43 0 -8
3 -14 8 -14 4 0 13 -15 21 -33 8 -17 17 -34 20 -37 9 -8 82 -156 84 -171 2 -8
6 -19 9 -25 4 -6 9 -22 12 -37 2 -15 14 -40 25 -56 12 -16 21 -33 21 -38 0 -4
-20 -22 -43 -40 -23 -17 -51 -39 -62 -48 -11 -8 -47 -35 -80 -60 -33 -25 -71
-54 -85 -65 -14 -11 -31 -20 -37 -20 -7 0 -13 -4 -13 -8 0 -8 -160 -91 -215
-112 -71 -28 -147 -50 -190 -55 -69 -9 -106 -45 -100 -94 4 -34 44 -81 70 -81
6 0 45 -13 88 -30 43 -16 88 -32 100 -34 12 -3 56 -14 97 -26 41 -12 116 -32
165 -45 50 -14 124 -34 165 -45 41 -12 80 -23 85 -24 6 -1 30 -8 55 -15 25 -7
53 -15 63 -17 10 -1 32 -8 50 -13 18 -6 69 -22 115 -36 72 -22 106 -35 197
-75 11 -5 72 -33 135 -63 63 -30 126 -58 140 -62 14 -4 39 -13 55 -21 138 -61
324 -91 382 -61 39 21 63 67 63 123 0 51 0 51 -110 279 -48 99 -95 198 -105
220 -9 22 -22 54 -29 70 -7 17 -18 41 -24 55 -5 14 -17 42 -26 62 -16 37 -74
213 -77 233 0 6 -5 17 -10 26 -4 9 -10 27 -13 40 -7 28 -22 93 -30 129 -7 30
-18 111 -21 160 -4 67 -14 86 -52 98 -33 10 -38 9 -65 -19 -30 -30 -30 -30
-24 -112 4 -45 12 -101 17 -125 5 -23 12 -59 15 -80 3 -20 11 -55 18 -77 27
-79 60 -190 59 -195 -1 -3 2 -9 6 -15 4 -5 14 -30 21 -55 8 -25 20 -54 26 -65
7 -11 13 -23 14 -27 3 -29 33 -97 141 -323 35 -72 62 -133 61 -137 -1 -5 3 -8
9 -8 5 0 7 -5 4 -10 -3 -6 -2 -10 3 -10 5 0 15 -15 22 -32 6 -18 16 -41 21
-50 5 -10 9 -20 9 -24 0 -17 -160 25 -275 73 -33 14 -76 32 -95 40 -19 8 -57
25 -85 38 -126 59 -170 79 -175 80 -3 0 -14 6 -26 12 -26 15 -126 49 -179 62
-33 8 -141 37 -205 56 -8 2 -31 9 -50 14 -19 5 -71 19 -115 31 -44 12 -87 23
-95 25 -8 2 -74 20 -147 41 l-131 37 125 63 c69 35 133 70 143 79 9 8 22 15
28 15 7 0 12 5 12 10 0 6 6 10 14 10 8 0 16 4 18 9 2 4 33 28 69 53 96 64 207
157 336 282 29 28 78 76 110 107 51 49 85 86 183 199 75 86 109 165 88 204
-15 28 -28 36 -62 36 -32 0 -104 -65 -165 -150 -79 -110 -235 -274 -268 -282
-18 -5 -23 0 -29 26 -10 44 -103 252 -127 281 -17 22 -88 141 -94 157 -3 10
-9 18 -14 18 -5 0 -9 6 -9 14 0 8 -4 16 -8 18 -5 2 -33 39 -63 83 -60 90 -56
85 -104 143 -19 24 -35 47 -35 50 0 4 -17 26 -38 49 -36 41 -45 51 -107 128
-16 20 -39 47 -50 60 -11 12 -36 42 -55 65 -38 46 -63 75 -155 176 -95 105
-422 432 -514 514 -143 128 -183 164 -220 199 -20 18 -53 47 -74 65 -21 17
-49 40 -62 51 -14 11 -36 29 -51 40 -14 11 -46 36 -70 55 -24 19 -57 46 -75
60 -17 14 -37 31 -45 38 -7 6 -17 12 -22 12 -6 0 -12 4 -14 8 -1 5 -32 29 -68
53 -36 24 -71 49 -77 55 -7 7 -29 22 -50 35 -21 13 -44 29 -51 36 -7 7 -17 13
-21 13 -4 0 -18 9 -31 20 -13 11 -29 20 -37 20 -7 0 -13 4 -13 9 0 5 -8 11
-17 15 -10 3 -31 14 -48 25 -16 11 -65 38 -107 60 -96 50 -122 65 -128 72 -6
6 -45 22 -45 18 0 -2 -27 11 -60 28 -85 45 -264 117 -318 128 -17 4 -66 19
-117 36 -14 5 -70 18 -125 29 -261 53 -577 48 -790 -12 -87 -24 -201 -65 -237
-84 -14 -8 -33 -14 -42 -14 -9 0 -16 -5 -16 -11 0 -5 -4 -7 -10 -4 -5 3 -10 1
-10 -5 0 -6 -4 -8 -10 -5 -5 3 -10 1 -10 -6 0 -7 -3 -9 -6 -6 -4 4 -19 -2 -34
-13 -16 -11 -33 -20 -39 -20 -6 0 -11 -4 -11 -10 0 -5 -11 -12 -24 -16 -14 -3
-32 -14 -42 -25 -9 -10 -23 -19 -31 -19 -7 0 -13 -4 -13 -10 0 -5 -4 -10 -10
-10 -34 0 -337 -275 -351 -319 -6 -18 -37 -8 -71 24 -15 14 -30 25 -33 25 -3
0 -13 7 -22 16 -36 32 -182 134 -191 134 -6 0 -12 4 -14 8 -5 12 -144 102
-157 102 -6 0 -11 5 -11 10 0 6 -7 10 -15 10 -8 0 -15 5 -15 10 0 6 -6 10 -14
10 -8 0 -21 6 -28 14 -8 8 -32 22 -54 33 -45 22 -87 46 -94 53 -3 3 -32 18
-65 34 -33 16 -63 33 -66 38 -3 5 -13 10 -21 12 -8 1 -27 9 -41 19 -15 9 -29
17 -32 17 -3 0 -41 18 -85 39 -44 22 -80 38 -80 36 0 -2 -38 14 -84 36 -46 21
-90 39 -98 39 -8 0 -18 3 -22 7 -6 6 -68 31 -91 36 -5 2 -14 5 -20 9 -10 6
-155 50 -165 50 -3 0 -16 5 -30 10 -14 5 -32 11 -40 13 -8 2 -67 17 -130 33
-63 16 -137 33 -165 38 -27 4 -52 8 -55 9 -3 1 -30 5 -60 10 -30 4 -66 10 -80
12 -65 12 -500 10 -580 -2z m-1211 -1199 c43 -36 161 -158 161 -167 0 -4 16
-35 35 -67 45 -77 96 -231 110 -332 13 -91 14 -310 2 -338 -32 -76 -103 -122
-186 -122 -54 0 -151 26 -151 40 0 6 -7 10 -15 10 -8 0 -15 4 -15 9 0 5 -9 11
-19 14 -23 6 -86 102 -100 154 -13 45 -8 254 9 368 18 124 18 125 40 210 12
44 25 94 30 110 7 26 16 53 45 133 5 14 15 10 54 -22z m4055 -66 c81 -75 130
-126 146 -150 8 -12 20 -28 25 -34 17 -19 103 -201 110 -232 2 -10 13 -59 24
-108 39 -174 12 -333 -62 -368 -31 -15 -74 -16 -127 -4 -30 7 -154 68 -158 79
-2 4 -9 7 -16 7 -33 0 -134 145 -150 215 -3 17 -9 41 -13 55 -10 41 -6 221 7
275 7 28 14 64 17 80 3 17 10 36 15 43 6 6 7 12 4 12 -4 0 -2 9 4 21 6 11 13
29 15 40 2 11 18 49 36 84 36 74 24 76 123 -15z"/>
</g>
</svg>
