<svg width="188" height="68" viewBox="0 0 188 68" fill="none" xmlns="http://www.w3.org/2000/svg">
<path id="Vector 75" d="M186.806 38.652C180.58 18.841 177.03 8.46882 156.406 13.0519C146.075 15.3479 142.007 20.2545 142.007 29.852C142.007 36.2321 151.607 34.7991 151.607 28.2519C151.607 19.7084 148.197 11.3778 141.206 5.94084C124.882 -6.75642 97.7897 7.66906 86.0065 19.4519C81.3248 24.1335 80.0485 37.2835 89.2065 31.8964C95.6744 28.0917 91.755 16.9701 87.6065 13.0519C68.8137 -4.69745 46.1692 14.4892 32.5843 28.0741C28.0196 32.6388 19.0158 43.1193 17.2954 49.1408C15.9009 54.0215 5.34392 37.9141 11.5176 45.8519C15.0902 50.4455 22.2608 57.129 28.4065 57.8519C31.3709 58.2007 14.8958 61.9012 12.4065 63.0075C8.22983 64.8638 -1.41902 69.8829 1.56203 64.252C4.03024 59.5898 7.60651 51.6693 7.60651 46.652" stroke="#7E7E7E" stroke-width="2" stroke-linecap="round"/>
</svg>
