<?xml version="1.0" encoding="UTF-8" standalone="no"?>
<!-- Uploaded to: SVG Repo, www.svgrepo.com, Transformed by: SVG Repo Mixer Tools -->

<svg
   height="800px"
   width="800px"
   version="1.1"
   id="Layer_1"
   viewBox="-51.2 -51.2 614.40 614.40"
   xml:space="preserve"
   fill="#000000"
   transform="rotate(0)"
   sodipodi:docname="icon.svg"
   inkscape:version="1.3.2 (091e20e, 2023-11-25)"
   inkscape:export-filename="icon-34.png"
   inkscape:export-xdpi="4.0799999"
   inkscape:export-ydpi="4.0799999"
   xmlns:inkscape="http://www.inkscape.org/namespaces/inkscape"
   xmlns:sodipodi="http://sodipodi.sourceforge.net/DTD/sodipodi-0.dtd"
   xmlns="http://www.w3.org/2000/svg"
   xmlns:svg="http://www.w3.org/2000/svg"><defs
   id="defs18" /><sodipodi:namedview
   id="namedview18"
   pagecolor="#ffffff"
   bordercolor="#000000"
   borderopacity="0.25"
   inkscape:showpageshadow="2"
   inkscape:pageopacity="0.0"
   inkscape:pagecheckerboard="0"
   inkscape:deskcolor="#d1d1d1"
   inkscape:zoom="0.55581616"
   inkscape:cx="301.35864"
   inkscape:cy="456.08606"
   inkscape:window-width="1280"
   inkscape:window-height="1024"
   inkscape:window-x="215"
   inkscape:window-y="47"
   inkscape:window-maximized="0"
   inkscape:current-layer="Layer_1" />

<g
   id="SVGRepo_bgCarrier"
   stroke-width="0"
   transform="matrix(1.1083235,0,0,1.1274447,-196.13548,-125.33426)"
   style="fill:#fdf5e2;fill-opacity:1">

<path
   d="M 547.70772,486.58399 C 597.58893,447.95358 662.57173,420.30698 677.25222,358.81655 692.15007,296.41567 663.50166,229.80169 620.67604,180.95006 582.92013,137.88152 522.13961,136.00434 467.41413,119.45208 404.85175,100.52948 339.77887,47.403258 283.37532,78.930118 c -56.82295,31.761312 -40.3442,115.886172 -61.121,177.554512 -26.1777,77.69881 -106.29699,148.17757 -74.37893,224.62721 33.03186,79.11737 132.31284,117.80695 217.83537,118.97742 74.92497,1.02544 123.28356,-68.03479 181.99696,-113.50527"
   fill="#ffffff"
   strokewidth="0"
   id="path1"
   style="fill:#ffc064;fill-opacity:0.275229;stroke-width:0" />

</g><circle
   style="fill:#ffffff;fill-opacity:1;stroke-width:0.87299"
   id="path19"
   cx="-180.39192"
   cy="-182.74031"
   r="171.43269"
   transform="scale(-1)" />

<g
   id="SVGRepo_tracerCarrier"
   stroke-linecap="round"
   stroke-linejoin="round"
   transform="matrix(1.1367054,0,0,1.1367054,-34.996571,-34.996571)" />

<g
   id="SVGRepo_iconCarrier"
   transform="matrix(1.1367054,0,0,1.1367054,-34.996571,-34.996571)"> <path
   style="fill:#f1f4fb"
   d="M 187.591,8.017 C 88.416,8.017 8.017,88.415 8.017,187.591 c 0,99.176 80.399,179.574 179.574,179.574 99.175,0 179.574,-80.398 179.574,-179.574 C 367.165,88.415 286.766,8.017 187.591,8.017 Z M 50.772,187.591 c 0,-75.562 61.256,-136.818 136.818,-136.818 75.562,0 136.818,61.256 136.818,136.818 0,1.3 -0.158,2.559 -0.195,3.849 -66.736,13.663 -119.103,66.038 -132.763,132.775 -1.296,0.036 -2.558,0.195 -3.861,0.195 C 112.029,324.409 50.772,263.153 50.772,187.591 Z"
   id="path2" /> <path
   style="fill:#d5dced"
   d="m 367.142,188.022 c -2.844,-0.141 -5.65,-0.431 -8.529,-0.431 -11.777,0 -23.273,1.194 -34.38,3.461 -1.825,72.786 -60.396,131.358 -133.182,133.183 -2.267,11.107 -3.461,22.603 -3.461,34.38 0,2.88 0.29,5.684 0.43,8.529 98.832,-0.236 178.888,-80.292 179.122,-179.122 z"
   id="path3" /> <circle
   style="fill:#707487"
   cx="187.591"
   cy="187.591"
   r="17.101999"
   id="circle3" /> <circle
   style="fill:#ffc064;fill-opacity:1"
   cx="358.61401"
   cy="358.61401"
   r="145.37"
   id="circle4" /> <circle
   style="fill:#ffe2a3;fill-opacity:1"
   cx="358.61401"
   cy="358.61401"
   r="111.165"
   id="circle5" /> <path
   d="m 374.263,206.02 c 0.595,-6.113 0.918,-12.281 0.918,-18.429 C 375.182,84.153 291.029,0 187.591,0 84.153,0 0,84.153 0,187.591 c 0,103.438 84.153,187.591 187.591,187.591 6.149,0 12.316,-0.323 18.429,-0.918 C 213.885,451.518 279.319,512 358.614,512 443.191,512 512,443.191 512,358.614 512,279.319 451.518,213.885 374.263,206.02 Z M 16.033,187.591 c 0,-94.597 76.96,-171.557 171.557,-171.557 94.597,0 171.557,76.96 171.557,171.557 0,5.889 -0.313,11.796 -0.909,17.641 -84.28,0.203 -152.804,68.727 -153.007,153.007 -5.846,0.595 -11.752,0.909 -17.641,0.909 -94.596,0 -171.557,-76.96 -171.557,-171.557 z m 342.581,308.376 c -75.736,0 -137.353,-61.616 -137.353,-137.353 0,-75.737 61.616,-137.353 137.353,-137.353 75.737,0 137.353,61.616 137.353,137.353 0,75.737 -61.617,137.353 -137.353,137.353 z"
   id="path5" /> <path
   d="m 358.614,239.432 c -65.717,0 -119.182,53.465 -119.182,119.182 0,65.717 53.465,119.182 119.182,119.182 65.717,0 119.182,-53.465 119.182,-119.182 0,-65.717 -53.466,-119.182 -119.182,-119.182 z m 0,222.33 c -56.876,0 -103.148,-46.272 -103.148,-103.148 0,-56.876 46.272,-103.148 103.148,-103.148 56.876,0 103.148,46.272 103.148,103.148 0,56.876 -46.272,103.148 -103.148,103.148 z"
   id="path6" /> <path
   d="m 384.802,329.754 c 0,4.427 3.589,8.017 8.017,8.017 4.427,0 8.017,-3.589 8.017,-8.017 0,-15.098 -14.492,-27.298 -34.205,-29.93 v -9.619 c 0,-4.427 -3.589,-8.017 -8.017,-8.017 -4.427,0 -8.017,3.589 -8.017,8.017 v 9.619 c -19.713,2.632 -34.205,14.831 -34.205,29.93 0,21.354 18.87,29.654 34.205,34.718 v 36.709 c -11.014,-2.054 -18.171,-8.139 -18.171,-13.706 0,-4.427 -3.589,-8.017 -8.017,-8.017 -4.427,0 -8.017,3.589 -8.017,8.017 0,15.098 14.492,27.298 34.205,29.93 v 9.619 c 0,4.427 3.589,8.017 8.017,8.017 4.427,0 8.017,-3.589 8.017,-8.017 v -9.619 c 19.713,-2.632 34.205,-14.831 34.205,-29.93 0,-21.354 -18.87,-29.654 -34.205,-34.718 v -36.709 c 11.013,2.054 18.171,8.139 18.171,13.706 z m -52.376,0 c 0,-5.567 7.157,-11.652 18.171,-13.706 v 31.358 c -13.677,-5.22 -18.171,-9.94 -18.171,-17.652 z m 52.376,57.72 c 0,5.567 -7.157,11.652 -18.171,13.706 v -31.358 c 13.677,5.22 18.171,9.94 18.171,17.652 z"
   id="path7" /> <path
   d="m 212.71,187.591 c 0,-2.902 -0.5,-5.689 -1.41,-8.285 l 58.173,-45.245 c 3.495,-2.718 4.125,-7.755 1.406,-11.249 -2.718,-3.495 -7.755,-4.125 -11.249,-1.406 l -58.179,45.251 c -3.975,-2.64 -8.74,-4.184 -13.859,-4.184 -4.007,0 -7.794,0.948 -11.158,2.623 L 107.749,96.411 c -3.131,-3.131 -8.207,-3.131 -11.337,0 -3.131,3.131 -3.131,8.207 0,11.337 l 68.685,68.685 c -1.676,3.364 -2.623,7.152 -2.623,11.158 0,13.851 11.268,25.119 25.119,25.119 13.851,0 25.117,-11.268 25.117,-25.119 z m -34.205,0 c 0,-5.01 4.076,-9.086 9.086,-9.086 5.01,0 9.086,4.076 9.086,9.086 0,5.01 -4.076,9.086 -9.086,9.086 -5.01,0 -9.086,-4.076 -9.086,-9.086 z"
   id="path8" /> <path
   d="m 187.591,67.34 c 4.427,0 8.017,-3.589 8.017,-8.017 V 42.221 c 0,-4.427 -3.589,-8.017 -8.017,-8.017 -4.428,0 -8.017,3.589 -8.017,8.017 v 17.102 c 0,4.428 3.589,8.017 8.017,8.017 z"
   id="path9" /> <path
   d="m 187.591,307.841 c -4.427,0 -8.017,3.589 -8.017,8.017 v 17.102 c 0,4.427 3.589,8.017 8.017,8.017 4.428,0 8.017,-3.589 8.017,-8.017 v -17.102 c 0,-4.427 -3.59,-8.017 -8.017,-8.017 z"
   id="path10" /> <path
   d="m 307.841,187.591 c 0,4.427 3.589,8.017 8.017,8.017 h 17.102 c 4.427,0 8.017,-3.589 8.017,-8.017 0,-4.428 -3.589,-8.017 -8.017,-8.017 h -17.102 c -4.427,0 -8.017,3.589 -8.017,8.017 z"
   id="path11" /> <path
   d="m 67.34,187.591 c 0,-4.427 -3.589,-8.017 -8.017,-8.017 H 42.221 c -4.427,0 -8.017,3.589 -8.017,8.017 0,4.428 3.589,8.017 8.017,8.017 h 17.102 c 4.428,0 8.017,-3.59 8.017,-8.017 z"
   id="path12" /> <path
   d="m 251.992,76.045 c 1.262,0.729 2.641,1.075 4.001,1.075 2.771,0 5.465,-1.439 6.95,-4.009 l 4.276,-7.405 c 2.214,-3.834 0.9,-8.737 -2.934,-10.951 -3.835,-2.216 -8.737,-0.9 -10.951,2.934 l -4.276,7.405 c -2.214,3.835 -0.9,8.738 2.934,10.951 z"
   id="path13" /> <path
   d="m 123.19,299.136 c -3.834,-2.216 -8.737,-0.9 -10.951,2.934 l -4.276,7.405 c -2.214,3.834 -0.9,8.737 2.934,10.951 1.262,0.729 2.641,1.075 4.001,1.075 2.771,0 5.465,-1.439 6.95,-4.009 l 4.276,-7.405 c 2.214,-3.834 0.9,-8.737 -2.934,-10.951 z"
   id="path14" /> <path
   d="m 112.239,73.111 c 1.485,2.572 4.179,4.009 6.95,4.009 1.36,0 2.739,-0.346 4.001,-1.075 3.834,-2.214 5.148,-7.117 2.934,-10.951 l -4.276,-7.405 c -2.214,-3.835 -7.117,-5.149 -10.951,-2.934 -3.834,2.214 -5.148,7.117 -2.934,10.951 z"
   id="path15" /> <path
   d="m 73.111,112.239 -7.405,-4.276 c -3.834,-2.215 -8.737,-0.901 -10.951,2.934 -2.214,3.834 -0.9,8.737 2.934,10.951 l 7.405,4.276 c 1.262,0.729 2.641,1.075 4.001,1.075 2.771,0 5.465,-1.439 6.95,-4.009 2.214,-3.834 0.9,-8.737 -2.934,-10.951 z"
   id="path16" /> <path
   d="m 306.086,127.199 c 1.36,0 2.739,-0.346 4.001,-1.075 l 7.405,-4.276 c 3.834,-2.214 5.148,-7.117 2.934,-10.951 -2.214,-3.835 -7.117,-5.148 -10.951,-2.934 l -7.405,4.276 c -3.834,2.214 -5.148,7.117 -2.934,10.951 1.485,2.572 4.18,4.009 6.95,4.009 z"
   id="path17" /> <path
   d="m 65.095,249.058 -7.405,4.276 c -3.834,2.214 -5.148,7.117 -2.934,10.951 1.485,2.572 4.179,4.009 6.95,4.009 1.36,0 2.739,-0.346 4.001,-1.075 l 7.405,-4.276 c 3.834,-2.214 5.148,-7.117 2.934,-10.951 -2.214,-3.836 -7.118,-5.148 -10.951,-2.934 z"
   id="path18" /> </g>

</svg>
