<svg width="224" height="23" viewBox="0 0 224 23" fill="none" xmlns="http://www.w3.org/2000/svg">
  <path
     id="Vector 45"
     d="m 222.99977,11.6611 c -9.5856,-5.74904 -22.0291,-13.06995 -42.8887,-9.76453 -15.4968,2.45564 -17.8377,9.38293 -37.1938,9.19013 -19.8655,-0.1979 -33.0415,-6.29697 -49.6515,-9.19013 -17.429,-3.03599 -33.518,2.21141 -43.155,7.17979 -10.028,5.16924 -21.529,7.34674 -37.728,4.59504 -17.4389997,-2.9625 8.947,-2.5847 16.017,-2.5847 5.452,0 -3.584,-0.6531 -6.318,-0.4467 -6.479,0.4891 -15.3469997,-0.65674 -20.8219997,-0.0958 -1.48800003,0.1525 3.87,3.198 4.272,3.6697 2.452,2.8782 4.449,4.6909 4.449,7.7861"
     stroke="#7e7e7e"
     stroke-width="2"
     stroke-linecap="round" />
</svg>
